<svg xmlns="http://www.w3.org/2000/svg" viewBox="-3 -40 92 47"><path fill="white" d="M15.33-32.77L18.80-33.35L24.84-31.90L24.54-31.64L23.84-28.17L24.42-28.17L24.07-26.27L24-27.45L23.44-26.86L23.44-26.30L23.70-26.02L23.44-25.71L23.44-25.43L23.70-25.15L23.70-24.84L23.44-24.56L23.70-24.28L22.83-23.70L17.63-24.77L17.34-24.49L17.34-24.77L17.06-24.49L16.78-24.49L16.48-24.77L16.17-24.77L13.22-23.34L12.91-23.63Q10.59-19.59 10.59-16.92L10.59-16.92L10.59-16.64L10.90-16.36L10.59-16.05L10.59-15.49L10.90-15.21L10.59-14.91L10.59-14.34L12.05-11.46Q14.51-9.28 16.78-9.14L16.78-9.14L17.06-9.42L18.21-9.14Q20.09-9.14 23.23-10.57L23.23-10.57L23.23-10.31L23.53-7.99L23.23-7.99L23.81-6.54L23.53-6.28L23.81-6.28L23.53-5.39L23.81-3.68Q23.81-1.08 20.51-1.08L20.51-1.08Q20.51-0.45 15.61 0.07L15.61 0.07Q8.48-1.45 6.98-3.38L6.98-3.38Q4.08-5.74 2.74-8.86L2.74-8.86L3.05-9.14Q2.06-9.14 1.03-16.36L1.03-16.36L1.34-16.64L1.34-16.92L1.03-17.23L1.59-19.80L1.34-20.67Q1.83-20.67 2.18-22.41L2.18-22.41L1.90-22.41Q2.13-24.63 3.84-26.39L3.84-26.39L4.13-26.39L4.13-25.83L4.69-25.83L4.69-26.39L4.13-26.39L4.13-27.56Q9.19-32.81 15.33-33.05L15.33-33.05L15.33-32.77ZM25.38-32.51L26.09-33.21L27.14-33.21L27.49-32.86L27.84-32.86L27.84-33.21L28.22-32.86L32.81-32.86L33.16-32.51L33.54-32.51L33.89-32.86L34.24-32.51L34.59-32.86L34.95-32.51L34.95-31.45L34.59-29.67L34.95-29.67L34.59-29.32L34.59-28.97L34.95-28.59L34.95-28.24L34.59-27.19L34.95-26.11L33.89-26.11L33.89-25.76L35.65-25.41L43.83-25.41L44.53-26.11L44.53-26.84L44.18-26.84L44.53-29.32L44.53-32.51L53.77-32.51L53.77-30.02L53.39-28.59Q53.58-25.76 54.82-25.76L54.82-25.76L56.60-26.48L56.60-26.11L55.52-22.92L56.23-21.52L55.88-19.73L55.52-20.09L54.82-20.09L54.82-19.73Q55.88-19.73 55.88-19.03L55.88-19.03L55.52-18.68L56.23-17.25L55.88-14.77L55.88-12.63L56.23-12.28L55.17-8.02L55.52-7.66Q55.01-7.66 54.12-4.48L54.12-4.48L53.77-4.48L53.39-4.83L53.39-4.48L53.77-4.13Q52.88-4.13 52.69-2.70L52.69-2.70L52.34-3.05L51.63-3.05L51.98-2.70L51.98-2.34Q48.42-0.21 46.66 0.12L46.66 0.12L46.66-0.21L44.53 0.47L39.21 0.47L38.86 0.12L38.51 0.12L38.51 0.47Q31.31-1.38 28.92-5.53L28.92-5.53L27.84-6.96L27.84-9.80L27.49-11.58L27.84-11.58L27.49-11.93L27.49-16.20L27.14-16.55L27.84-17.95L27.14-21.14L27.84-22.22Q27.84-24 26.44-24L26.44-24L26.44-24.70L24.30-24.70L24.30-25.41Q25.38-25.41 25.73-27.19L25.73-27.19L25.38-27.54L25.38-27.89L25.73-28.97L25.38-31.08L25.38-32.51ZM46.66-29.32L45.59-29.32L45.94-28.97L45.94-28.59L45.59-28.24L45.94-27.89L46.66-27.89L46.31-28.24L46.66-28.59L46.66-29.32ZM50.55-27.54L50.20-27.89L50.20-27.19L51.28-27.19L51.28-27.89L50.91-27.54L50.55-27.54ZM46.66-27.54L46.31-27.54L46.31-26.84L47.37-26.84L46.66-27.54ZM53.04-26.48L51.63-26.84L51.28-26.48L51.28-25.76L53.04-26.11L53.04-26.48ZM50.55-26.48L48.80-26.48L48.80-25.76L50.55-26.11L50.55-26.48ZM51.63-25.05L50.55-25.05L50.55-24.35L51.63-24.35L51.63-25.05ZM45.94-24.70L38.86-24.35L37.78-24.35L37.43-24L37.08-24L37.43-22.22L37.43-20.44L36.73-19.38L37.08-19.38L37.43-19.73L37.43-18.68L37.08-18.30L37.78-14.77L37.43-14.41Q38.32-8.39 40.27-8.39L40.27-8.39L42.75-8.39Q44.53-8.39 45.94-11.58L45.94-11.58L45.94-18.30L46.66-19.03L47.02-18.68L47.02-19.38L46.66-19.38L46.31-19.03L45.94-19.03L45.94-19.38L46.31-21.14L45.94-22.57L46.31-22.57L45.94-22.92L45.94-23.63L46.31-24L46.31-24.35L45.94-24.70ZM47.37-24.70L46.66-24L47.72-24L47.72-24.70L47.37-24.70ZM50.20-21.14L49.15-21.52L49.15-21.14L49.50-20.79L50.20-20.79L50.20-21.14ZM28.57-20.79L27.84-20.09L28.22-19.73L28.92-19.73L28.92-20.79L28.57-20.79ZM49.15-19.38L48.42-18.68L48.07-19.03L47.37-19.03L47.37-18.68L49.15-18.30L49.15-19.38ZM30.33-17.60L29.63-17.60L29.63-17.25L31.05-16.90L31.41-16.90L31.41-17.25L30.33-17.60ZM75.89-2.81L75.47-3.21L75.28-2.60L75.28-2.41L75.47-2.41L75.89-2.81ZM73.69-2.81L73.29-2.81L73.29-2.60L73.69-2.20L73.88-2.20L73.88-2.41L73.48-2.41L73.69-2.60L73.69-2.81ZM73.08-2.41L72.47-2.41L72.89-2.02L73.08-2.20L73.08-2.41ZM75.28-2.02L74.88-1.62L74.88-1.41L75.47-1.41L75.28-2.02ZM84.23-32.48L82.01-14.65L80.16-15.07L79.38-14.34L79.01-14.34L78.28-15.09L76.78-14.77L74.18-15.19L74.18-14.81L75.28-13.66L76.38-13.66L76.78-14.02L77.13-14.02L77.11-12.14L76.69-10.29L77.06-10.29L76.66-9.19L77.02-7.69L76.64-7.31L76.97-5.44L76.85 0.14L75.73 0.47L75.38 0.09L75.35 0.47L75 0.09L73.50 0.45L72.02 0.02L71.63 0.40L71.27 0.40L70.90 0L70.52 0L67.55 0.30L67.55-0.05L67.20-1.17L67.57-1.55L67.59-1.90L67.24-3.77L67.62-3.77L67.27-4.15L67.27-4.52L67.66-5.63L67.34-7.88L67.71-7.88L67.34-8.25L67.34-8.63L67.76-10.48L67.43-12.73L67.80-13.08L67.45-13.45L67.45-14.20L68.95-14.55L68.95-14.18L70.08-14.53L71.18-14.13L71.20-14.51Q71.20-15.26 69.35-15.28L69.35-15.28L69.35-15.66L67.48-14.95L67.10-15.33L66.38-15.35Q66.35-14.23 63.73-14.27L63.73-14.27L63.75-15.02L63.38-15.02L63.38-14.30Q62.63-14.30 62.65-15.80L62.65-15.80L59.67-15.84L59.65-14.74L59.27-14.74Q59.30-15.87 57.07-15.91L57.07-15.91L57.45-16.27L57.45-16.64L57.82-16.27L62.65-16.17Q63.40-16.15 63.82-18.75L63.82-18.75L63.47-19.88L63.84-19.88L63.49-20.25L63.49-21L63.89-21.35L63.21-24.73L58.73-24.82L57.23-24.47L56.88-24.84L56.51-24.87L55.38-24.52L53.95-27.89L54.33-28.27L54-30.12L54.02-30.87Q54.07-33.12 56.30-33.07L56.30-33.07L56.65-32.67L57.02-32.67L58.52-33.02L58.90-32.63L59.27-32.63L60.77-32.98L61.13-32.60L61.50-32.58L63-32.93L63.35-32.55L63.73-32.53L64.13-32.91L64.48-32.53L64.85-32.88L64.85-32.51L65.23-32.88L66.35-32.86L68.58-32.06L68.95-32.44L68.93-31.69L69.30-31.69L69.33-32.79L71.18-32.77L71.18-32.39L70.80-32.02L70.80-31.64L71.53-31.64L71.55-32.74L71.93-32.74L71.93-31.99L72.28-31.99L72.30-32.74L73.05-32.72L74.53-32.32L75.66-32.67L75.66-32.30L76.03-32.67L80.13-32.58L82.01-32.91L82.34-31.78L81.98-31.80L82.34-31.41L82.24-26.95L81.87-26.58L82.24-26.20L82.22-25.45L81.47-24.73L81.09-24.73L80.72-25.13L80.34-25.13L79.97-24.75L79.59-25.15L79.22-24.77L79.22-24.40L78.84-24.77L76.62-24.82L76.62-25.20L77.02-25.57L77.02-25.95L76.27-25.95Q76.24-24.47 74.37-24.49L74.37-24.49L73.27-24.52L73.17-20.79L72.80-20.44L73.17-20.06L73.15-18.56L72.75-18.19L73.08-15.96L73.83-15.94L76.43-15.52L76.43-15.89L76.80-15.52L77.55-15.49L77.93-15.87L78.28-15.47L79.03-15.47L79.41-15.82L79.78-15.45L83.13-15.38Q83.88-15.38 83.93-17.60L83.93-17.60Q83.95-18.87 83.98-20.20L83.98-20.20L83.98-20.58L84-21.70L83.65-22.08L83.67-23.55L84.05-23.93L83.70-24.30L83.72-26.18L84.09-26.53L84.12-26.91L83.74-27.28L84.12-27.28L83.77-27.66L83.81-31.01L84.21-31.38L83.84-31.76L83.86-32.88L84.23-32.48ZM75.98-30.05L74.48-29.72L74.48-29.34L76.34-28.92L75.98-30.05ZM76.01-12.91L75.63-12.91L75.23-11.81L75.98-11.79L76.01-12.91ZM69.63-11.18L69.26-11.18L68.86-10.08L69.61-10.05L69.63-11.18Z"></path></svg>
